<?xml version="1.0" encoding="UTF-8"?>
<svg width="20px" height="20px" viewBox="0 0 20 20" version="1.1" xmlns="http://www.w3.org/2000/svg" xmlns:xlink="http://www.w3.org/1999/xlink">
    <!-- Generator: sketchtool 56.3 (101010) - https://sketch.com -->
    <title>DF77EF4B-2A80-45AF-9295-445923BA523F@1.5x</title>
    <desc>Created with sketchtool.</desc>
    <g id="Website-&amp;-Mobile" stroke="none" stroke-width="1" fill="none" fill-rule="evenodd">
        <g id="Hotel-Inner" transform="translate(-794.000000, -306.000000)" fill="#BB9356">
            <g id="Group-2" transform="translate(784.000000, 267.000000)">
                <g id="Phone-Icon" transform="translate(10.000000, 39.000000)">
                    <path d="M10,20 C4.4771525,20 0,15.5228475 0,10 C0,4.4771525 4.4771525,0 10,0 C15.5228475,0 20,4.4771525 20,10 C20,15.5228475 15.5228475,20 10,20 Z M9.61392198,11.2130341 C9.16880262,11.6581534 8.48879335,11.7685037 7.92575695,11.4869855 C7.36272054,11.2054673 6.68271128,11.3158176 6.23759191,11.760937 L4.72658218,13.2719467 C4.67169475,13.3268342 4.63034033,13.393747 4.60579393,13.4673862 C4.51847004,13.7293579 4.66005003,14.0125179 4.92202169,14.0998418 L6.27584113,14.5511149 C7.57592638,14.9844767 9.00927397,14.6461092 9.9783003,13.6770829 L13.9775173,9.67786586 C14.867756,8.78762714 15.0884566,7.42760861 14.5254202,6.3015358 L13.8928491,5.03639343 C13.8688153,4.98832598 13.8371895,4.9444475 13.7991889,4.90644684 C13.6039267,4.71118469 13.2873442,4.71118469 13.0920821,4.90644684 L11.4995401,6.49898884 C11.0544207,6.94410821 10.9440704,7.62411747 11.2255886,8.18715388 C11.5071068,8.75019028 11.3967565,9.43019955 10.9516371,9.87531891 L9.61392198,11.2130341 Z" id="Combined-Shape"></path>
                </g>
            </g>
        </g>
    </g>
</svg>